<svg width="140" height="140" viewBox="0 0 140 140" fill="none" xmlns="http://www.w3.org/2000/svg">
<rect width="140" height="140" rx="70" fill="#0E3020"/>
<path d="M47.3005 21.3C57.2972 21.3001 65.4011 29.404 65.4011 39.4006C65.4011 49.3973 57.2972 57.5012 47.3005 57.5012C37.3039 57.5012 29.2 49.3973 29.2 39.4006C29.2 29.404 37.3039 21.3 47.3005 21.3ZM47.2996 27.0657C40.4807 27.0657 34.9529 32.5934 34.9529 39.4124C34.9529 46.2312 40.4807 51.759 47.2996 51.759C54.1183 51.7589 59.6462 46.2311 59.6462 39.4124C59.6462 32.5935 54.1184 27.0658 47.2996 27.0657Z" fill="white"/>
<path d="M93.1006 43.5C103.097 43.5 111.201 51.6039 111.201 61.6006C111.201 71.5972 103.097 79.7012 93.1006 79.7012C83.1039 79.7012 75 71.5972 75 61.6006C75 51.6039 83.1039 43.5 93.1006 43.5ZM93.0957 49.2422C86.2768 49.2422 80.749 54.77 80.749 61.5889C80.749 68.4078 86.2768 73.9355 93.0957 73.9355C99.9144 73.9353 105.442 68.4076 105.442 61.5889C105.442 54.7701 99.9144 49.2424 93.0957 49.2422Z" fill="white"/>
<rect x="23" y="64.3789" width="44.3523" height="5.75381" fill="white"/>
<rect x="72.8021" y="84" width="40.5" height="5.75381" fill="white"/>
<path d="M103.754 88.5938L103.754 120L98 120L98 88.5938L103.754 88.5938Z" fill="white"/>
<path d="M49.9999 54L49.9999 69.4L44.2499 69.4L44.2499 54L49.9999 54Z" fill="white"/>
<path d="M36.2498 70H29.9998C28.4999 95 44.521 114 69.5 113.5L69.4789 108C42.5 107.5 34 86 36.2498 70Z" fill="white"/>
<path d="M71 120.201V114.687C83.3467 112.29 84 93 84.5454 84L90.6589 84.0001C88.9807 106.895 84.5454 119.362 71 120.201Z" fill="white"/>
</svg>
