<svg width="150" height="150" viewBox="0 0 150 150" fill="none" xmlns="http://www.w3.org/2000/svg">
<rect width="150" height="150" rx="75" fill="#274B39"/>
<path d="M52.3005 26.3C62.2972 26.3001 70.4011 34.404 70.4011 44.4006C70.4011 54.3973 62.2972 62.5012 52.3005 62.5012C42.3039 62.5012 34.2 54.3973 34.2 44.4006C34.2 34.404 42.3039 26.3 52.3005 26.3ZM52.2996 32.0657C45.4807 32.0657 39.9529 37.5934 39.9529 44.4124C39.9529 51.2312 45.4807 56.759 52.2996 56.759C59.1183 56.7589 64.6462 51.2311 64.6462 44.4124C64.6462 37.5935 59.1184 32.0658 52.2996 32.0657Z" fill="white"/>
<path d="M98.1006 48.5C108.097 48.5 116.201 56.6039 116.201 66.6006C116.201 76.5972 108.097 84.7012 98.1006 84.7012C88.1039 84.7012 80 76.5972 80 66.6006C80 56.6039 88.1039 48.5 98.1006 48.5ZM98.0957 54.2422C91.2768 54.2422 85.749 59.77 85.749 66.5889C85.749 73.4078 91.2768 78.9355 98.0957 78.9355C104.914 78.9353 110.442 73.4076 110.442 66.5889C110.442 59.7701 104.914 54.2424 98.0957 54.2422Z" fill="white"/>
<rect x="28" y="69.3789" width="44.3523" height="5.75381" fill="white"/>
<rect x="77.8021" y="89" width="40.5" height="5.75381" fill="white"/>
<path d="M108.754 93.5938L108.754 125L103 125L103 93.5938L108.754 93.5938Z" fill="white"/>
<path d="M54.9999 59L54.9999 74.4L49.2499 74.4L49.2499 59L54.9999 59Z" fill="white"/>
<path d="M41.2498 75H34.9998C33.4999 100 49.521 119 74.5 118.5L74.4789 113C47.5 112.5 39 91 41.2498 75Z" fill="white"/>
<path d="M76 125.201V119.687C88.3467 117.29 89 98 89.5454 89L95.6589 89.0001C93.9807 111.895 89.5454 124.362 76 125.201Z" fill="white"/>
</svg>
