<svg width="96" height="96" viewBox="0 0 96 96" fill="none" xmlns="http://www.w3.org/2000/svg">
  <defs>
    <linearGradient id="adv" x1="16" y1="10" x2="80" y2="88" gradientUnits="userSpaceOnUse">
      <stop stop-color="#4fb082"/>
      <stop offset="1" stop-color="#2c7d54"/>
    </linearGradient>
    <filter id="advSh" x="-20%" y="-10%" width="140%" height="140%">
      <feDropShadow dx="0" dy="3" stdDeviation="3" flood-color="#1c5238" flood-opacity="0.28"/>
    </filter>
  </defs>
  <rect width="96" height="96" rx="27" fill="url(#adv)"/>
  <rect width="96" height="44" rx="27" fill="#ffffff" opacity="0.12"/>
  <g filter="url(#advSh)">
    <rect x="33" y="30" width="20" height="40" rx="4" fill="#ffffff"/>
    <rect x="51" y="23" width="21" height="47" rx="4" fill="#ffffff"/>
  </g>
  <g fill="#2c7d54">
    <rect x="37" y="36" width="4.5" height="4.5" rx="1.3"/>
    <rect x="44.5" y="36" width="4.5" height="4.5" rx="1.3"/>
    <rect x="37" y="45" width="4.5" height="4.5" rx="1.3"/>
    <rect x="44.5" y="45" width="4.5" height="4.5" rx="1.3"/>
    <rect x="37" y="54" width="4.5" height="4.5" rx="1.3"/>
    <rect x="44.5" y="54" width="4.5" height="4.5" rx="1.3"/>
    <rect x="56" y="30" width="4.5" height="4.5" rx="1.3"/>
    <rect x="63" y="30" width="4.5" height="4.5" rx="1.3"/>
    <rect x="56" y="39" width="4.5" height="4.5" rx="1.3"/>
    <rect x="63" y="39" width="4.5" height="4.5" rx="1.3"/>
    <rect x="56" y="48" width="4.5" height="4.5" rx="1.3"/>
    <rect x="63" y="48" width="4.5" height="4.5" rx="1.3"/>
  </g>
</svg>
